<svg class="icon" viewBox="0 0 1024 1024" version="1.1" xmlns="http://www.w3.org/2000/svg"
     width="100" height="100">
    <path d="M512 981.333333c-36.266667 0-70.4-12.8-96-38.4l-38.4-36.266666c-12.8-12.8-29.866667-21.333333-49.066667-21.333334l-53.333333-2.133333c-74.666667-2.133333-132.266667-61.866667-134.4-134.4l-2.133333-53.333333c0-19.2-8.533333-36.266667-21.333334-49.066667l-36.266666-38.4a136.533333 136.533333 0 0 1 0-189.866667l36.266666-38.4c12.8-12.8 21.333333-29.866667 21.333334-49.066666l2.133333-53.333334c2.133333-74.666667 61.866667-132.266667 134.4-134.4l53.333333-2.133333c19.2 0 36.266667-8.533333 49.066667-21.333333l38.4-36.266667a136.533333 136.533333 0 0 1 189.866667 0l38.4 36.266667c12.8 12.8 29.866667 21.333333 49.066666 21.333333l53.333334 2.133333c74.666667 2.133333 132.266667 61.866667 134.4 134.4l2.133333 53.333334c0 19.2 8.533333 36.266667 21.333333 49.066666l36.266667 38.4a136.533333 136.533333 0 0 1 0 189.866667l-38.4 38.4c-12.8 12.8-21.333333 29.866667-21.333333 49.066667l-2.133334 53.333333c-2.133333 74.666667-61.866667 132.266667-134.4 134.4l-53.333333 2.133333c-19.2 0-36.266667 8.533333-49.066667 21.333334l-38.4 36.266666C580.266667 968.533333 546.133333 981.333333 512 981.333333z m0-874.666666c-19.2 0-38.4 8.533333-51.2 21.333333l-38.4 36.266667c-25.6 23.466667-57.6 36.266667-91.733333 38.4H277.333333c-40.533333 0-72.533333 34.133333-74.666666 74.666666l-2.133334 53.333334c0 34.133333-14.933333 66.133333-38.4 91.733333L128 460.8c-27.733333 29.866667-27.733333 74.666667 0 102.4l36.266667 38.4c23.466667 25.6 36.266667 57.6 38.4 91.733333l2.133333 53.333334c2.133333 40.533333 34.133333 72.533333 74.666667 72.533333l53.333333 2.133333c34.133333 0 66.133333 14.933333 91.733333 38.4l38.4 36.266667c29.866667 27.733333 74.666667 27.733333 102.4 0l38.4-36.266667c25.6-23.466667 57.6-36.266667 91.733334-38.4l53.333333-2.133333c40.533333-2.133333 72.533333-32 72.533333-72.533333l2.133334-53.333334c0-34.133333 14.933333-66.133333 38.4-91.733333l36.266666-38.4c27.733333-29.866667 27.733333-74.666667 0-102.4l-36.266666-38.4c-23.466667-25.6-36.266667-57.6-38.4-91.733333l-2.133334-53.333334c-2.133333-40.533333-32-72.533333-72.533333-72.533333l-53.333333-2.133333c-34.133333 0-66.133333-14.933333-91.733334-38.4L563.2 128c-12.8-12.8-32-21.333333-51.2-21.333333z"
          fill="#257CFF"/>
    <path d="M469.333333 646.4c-14.933333 0-27.733333-6.4-38.4-14.933333L320 518.4c-12.8-12.8-12.8-32-2.133333-44.8 12.8-12.8 32-12.8 44.8-2.133333 0 0 2.133333 0 2.133333 2.133333l104.533333 104.533333 192-189.866666c12.8-12.8 34.133333-10.666667 44.8 2.133333s10.666667 32 0 42.666667l-198.4 198.4c-10.666667 8.533333-23.466667 14.933333-38.4 14.933333z"
          fill="#257CFF"/>
</svg>