<svg class="icon" viewBox="0 0 1088 1024" version="1.1" xmlns="http://www.w3.org/2000/svg" width="100" height="100">
    <path d="M554.026667 0c294.570667 0 533.333333 238.784 533.333333 533.333333 0 219.52-132.586667 408.042667-322.069333 489.856l-65.92-65.941333c41.706667-14.293333 80.64-34.581333 115.776-59.818667l-59.2-59.178666 60.330666-60.352 63.253334 63.274666A446.4 446.4 0 0 0 1000.021333 576h-104.64v-85.333333h104.661334a445.461333 445.461333 0 0 0-77.184-211.712l-63.914667 63.893333-60.330667-60.330667 69.056-69.077333a446.528 446.528 0 0 0-270.933333-126.08L596.693333 170.666667h-85.333333V87.338667a446.528 446.528 0 0 0-270.976 126.08l69.056 69.098666-60.330667 60.330667-63.914666-63.893333A445.461333 445.461333 0 0 0 108.053333 490.666667H212.693333v85.333333H108.053333a446.4 446.4 0 0 0 120.490667 265.173333l63.253333-63.274666 60.330667 60.352-59.178667 59.178666a446.634667 446.634667 0 0 0 115.776 59.818667l-65.941333 65.941333C153.301333 941.376 20.693333 752.832 20.693333 533.333333c0-294.549333 238.762667-533.333333 533.333334-533.333333z m212.266666 385.066667l-211.2 392.213333-180.992-181.013333 392.192-211.2z m-157.482666 157.504l-128.64 69.269333 59.370666 59.370667 69.269334-128.64z"
          fill="#257CFF"/>
</svg>